<?xml version="1.0" encoding="utf-8"?>
<!-- Svg Vector Icons : http://www.onlinewebfonts.com/icon -->
<!DOCTYPE svg PUBLIC "-//W3C//DTD SVG 1.1//EN" "http://www.w3.org/Graphics/SVG/1.1/DTD/svg11.dtd">
<svg version="1.1" xmlns="http://www.w3.org/2000/svg" xmlns:xlink="http://www.w3.org/1999/xlink" x="0px" y="0px" viewBox="0 0 1000 1000" enable-background="new 0 0 1000 1000" xml:space="preserve">
<metadata> Svg Vector Icons : http://www.onlinewebfonts.com/icon </metadata>
<g><g transform="translate(0.000000,511.000000) scale(0.100000,-0.100000)"><path d="M771.6,3158.6c-239.2-65.1-459.2-237.3-564.4-443.9C98.1,2500.4,100,2521.4,100,927.6c0-1000.7,7.7-1500.1,21-1569c67-319.5,352.1-610.4,669.7-683.1c47.8-11.5,392.2-21,813.2-21h729l-9.6-57.4l-7.7-57.4h-533.8H1248l-225.8-118.6c-122.5-65.1-365.5-193.2-537.7-283.2c-376.9-195.2-392.2-212.4-378.9-440.1c19.1-361.6,220-545.3,650.5-593.1c118.6-15.3,1002.6-19.1,2711.2-15.3c2255.9,5.7,2546.7,11.5,2632.8,38.3c329.1,101.4,474.5,290.8,476.4,612.3c0,97.6-9.6,139.7-38.3,181.8c-28.7,38.3-199,133.9-600.8,336.7l-560.6,281.3h-600.8h-600.8v57.4v57.4h723.2c786.4,0,851.5,7.6,1044.7,111c149.2,80.4,292.7,235.3,373.1,403.7l68.9,145.4V923.8V2531l-72.7,149.2c-122.5,246.8-323.4,413.3-577.8,480.3C5570.3,3202.6,932.3,3202.6,771.6,3158.6z M5679.4,2636.2c93.7-42.1,168.4-133.9,197.1-241.1c28.7-107.2,28.7-2839.4,0-2946.6c-28.7-103.3-99.5-193.3-189.4-239.2c-74.6-38.3-116.7-38.3-2431.9-38.3c-2332.4,0-2359.2,0-2439.5,38.3c-45.9,23-103.3,74.6-133.9,118.6l-55.5,78.4l-5.7,1465.6c-3.8,805.5,0,1494.3,5.7,1528.8c13.4,74.6,130.1,210.5,210.5,244.9c45.9,21.1,512.8,24.9,2410.8,24.9C5505.2,2672.6,5604.7,2670.7,5679.4,2636.2z M5635.4-2162.5c206.7-103.3,376.9-193.2,376.9-200.9c0-5.7-45.9-17.2-99.5-24.9c-153.1-17.2-5206.2-1.9-5235,15.3c-17.2,11.5,76.5,70.8,296.6,189.4c176,95.7,334.8,183.7,352.1,195.1c23,15.3,574,19.1,1980.3,17.2l1949.7-3.8L5635.4-2162.5z"/><path d="M7432,3158.6c-290.8-78.5-526.2-304.2-616.1-595.1c-38.3-122.5-38.3-174.1-38.3-2454.8c0-2261.6,1.9-2334.3,38.3-2451c95.7-309.9,350.1-541.5,665.8-608.4c65.1-13.4,380.8-21,861-21c621.8,0,782.6,5.7,874.4,28.7c327.2,86.1,564.4,325.3,650.5,654.4c44,166.4,42.1,4630.3,0,4798.7c-86.1,329.1-352.1,589.3-675.4,658.2C9033.5,3200.7,7562.1,3194.9,7432,3158.6z M9144.5,2651.5c72.7-26.8,176-128.2,208.5-202.8c38.3-89.9,40.2-4586.3,1.9-4680.1c-36.4-84.2-170.3-200.9-246.8-214.3c-34.4-5.7-403.7-9.6-820.8-5.7l-755.8,5.7l-80.4,53.6c-44,28.7-99.5,88-122.5,133.9l-44,80.4l-5.7,2244.4c-1.9,1473.3,1.9,2271.2,15.3,2317.1c28.7,111,97.6,199,191.3,246.8c84.2,42.1,93.8,42.1,843.8,42.1C8819.2,2672.6,9110,2664.9,9144.5,2651.5z"/><path d="M7707.5,2094.7c-42.1-59.3-38.3-122.5,7.7-168.4c36.4-36.4,63.1-38.3,619.9-38.3h583.6l40.2,51.7c45.9,57.4,38.3,132-13.4,174.1c-24.9,17.2-179.8,23-619.9,23C7738.1,2136.8,7736.2,2136.8,7707.5,2094.7z"/><path d="M7715.2,1467.2c-49.7-49.8-49.7-122.5,0-172.2c36.4-36.3,63.1-38.3,619.9-38.3c493.6,0,587.4,3.8,612.3,28.7c49.7,51.7,55.5,107.2,15.3,160.7l-36.4,49.7l-585.5,5.7C7774.5,1505.4,7753.4,1505.4,7715.2,1467.2z"/><path d="M8224.1-551.4c-112.9-40.2-168.4-88-216.2-181.8c-126.3-246.8,44-535.7,313.8-535.7c130.1,0,210.5,34.4,287,120.5c97.6,111,124.4,246.8,70.8,373.1C8601.1-585.9,8398.3-486.4,8224.1-551.4z M8396.3-805.9c11.5-7.7,32.5-34.5,45.9-59.3c19.1-38.3,17.2-51.7-13.4-95.7c-49.7-63.1-124.4-74.6-176-23c-47.8,47.8-51.6,93.8-9.6,151.2C8272-790.6,8352.3-775.3,8396.3-805.9z"/><path d="M8237.5-1563.6c-116.7-51.7-166.5-189.4-111-306.1c40.2-84.2,112.9-126.3,221.9-126.3c63.2,0,89.9,11.5,143.5,65c55.5,55.5,65.1,78.5,65.1,153.1C8557.1-1611.4,8386.8-1498.5,8237.5-1563.6z M8384.9-1745.4c26.8-53.6-24.9-105.2-78.4-78.4c-42.1,23-47.8,57.4-13.4,91.8C8327.5-1697.5,8361.9-1703.3,8384.9-1745.4z"/></g></g>
</svg>